<svg width="51" height="51" viewBox="0 0 51 51" fill="none" xmlns="http://www.w3.org/2000/svg">
<ellipse cx="7.58743" cy="25.2059" rx="7.35855" ry="7.35294" fill="#FB543C"/>
<ellipse cx="25.2447" cy="25.2059" rx="7.35855" ry="7.35294" fill="#FB543C"/>
<ellipse cx="7.58743" cy="42.853" rx="7.35855" ry="7.35294" fill="#FB543C"/>
<ellipse cx="42.8703" cy="42.853" rx="7.35855" ry="7.35294" fill="#FB543C"/>
<path d="M32.6032 7.57035C32.6032 11.6313 29.3087 14.9233 25.2447 14.9233C21.1806 14.9233 17.8861 11.6313 17.8861 7.57035C17.8861 3.50943 21.1806 0.217407 25.2447 0.217407C29.3087 0.217407 32.6032 3.50943 32.6032 7.57035Z" fill="#FB543C"/>
<path d="M50.2288 7.55887C50.2288 11.6198 46.9343 14.9118 42.8703 14.9118C38.8063 14.9118 35.5117 11.6198 35.5117 7.55887C35.5117 3.49796 38.8063 0.205933 42.8703 0.205933C46.9343 0.205933 50.2288 3.49796 50.2288 7.55887Z" fill="#FB543C"/>
<path d="M14.946 7.55887C14.946 11.6198 11.6515 14.9118 7.58743 14.9118C3.52342 14.9118 0.228882 11.6198 0.228882 7.55887C0.228882 3.49796 3.52342 0.205933 7.58743 0.205933C11.6515 0.205933 14.946 3.49796 14.946 7.55887Z" fill="#FB543C"/>
<path fill-rule="evenodd" clip-rule="evenodd" d="M20.7675 13.3932C19.5487 12.4988 18.0442 11.9705 16.4161 11.9705C14.7881 11.9705 13.2836 12.4988 12.0648 13.3932C13.8158 12.0491 14.9444 9.93561 14.9444 7.55876C14.9444 5.1818 13.8157 3.06826 12.0646 1.72414C13.2833 2.61863 14.788 3.14699 16.4161 3.14699C18.0442 3.14699 19.5489 2.61862 20.7676 1.72414C19.0166 3.06826 17.8878 5.1818 17.8878 7.55876C17.8878 9.93564 19.0165 12.0491 20.7675 13.3932Z" fill="#FB543C"/>
<path fill-rule="evenodd" clip-rule="evenodd" d="M38.3925 13.3816C37.1739 12.4875 35.6696 11.9593 34.0418 11.9593C32.4141 11.9593 30.9098 12.4874 29.6912 13.3815C31.4418 12.0374 32.5701 9.92415 32.5701 7.54759C32.5701 5.17064 31.4414 3.05712 29.6903 1.71299C30.9091 2.60747 32.4137 3.13582 34.0418 3.13582C35.6699 3.13582 37.1746 2.60746 38.3933 1.71297C36.6422 3.0571 35.5135 5.17063 35.5135 7.54759C35.5135 9.92419 36.6419 12.0374 38.3925 13.3816Z" fill="#FB543C"/>
<path fill-rule="evenodd" clip-rule="evenodd" d="M20.7677 31.0465C19.5489 30.152 18.0442 29.6236 16.4161 29.6236C14.788 29.6236 13.2833 30.152 12.0646 31.0464C13.8156 29.7023 14.9444 27.5888 14.9444 25.2119C14.9444 22.835 13.8157 20.7216 12.0648 19.3774C13.2835 20.2718 14.7881 20.8001 16.4161 20.8001C18.0441 20.8001 19.5486 20.2718 20.7674 19.3774C19.0164 20.7216 17.8878 22.835 17.8878 25.2119C17.8878 27.5888 19.0165 29.7024 20.7677 31.0465Z" fill="#FB543C"/>
<path fill-rule="evenodd" clip-rule="evenodd" d="M1.74857 38.3773C2.64359 37.1595 3.17225 35.6561 3.17225 34.0294C3.17225 32.4026 2.64357 30.8993 1.74854 29.6815C3.0937 31.431 5.20874 32.5588 7.58738 32.5588C9.96562 32.5588 12.0803 31.4314 13.4255 29.6823C12.5309 30.9 12.0025 32.403 12.0025 34.0294C12.0025 35.6557 12.5309 37.1586 13.4254 38.3763C12.0802 36.6273 9.96555 35.5 7.58738 35.5C5.20876 35.5 3.09373 36.6277 1.74857 38.3773Z" fill="#FB543C"/>
</svg>
